<svg
   viewBox="0 0 64 64"
   version="1.1"
   xmlns="http://www.w3.org/2000/svg"
   xmlns:svg="http://www.w3.org/2000/svg">
  <path
     d="M 63.584786,32.349998 C 63.35326,24.520116 62.512454,18.263764 53.677898,9.3764705 44.843343,0.48917733 40.529642,0.09894207 34.436845,0.50176556 17.498869,1.760589 13.075499,5.9650591 7.7503936,12.347294 2.425289,18.729529 0.31718126,25.904822 0.40248041,30.147057 0.48777961,34.389292 2.5349593,45.177408 8.0672191,52.113525 13.599479,59.049642 18.802728,62.184112 30.342486,63.442936 41.882243,64.701759 50.863026,58.130701 55.810377,53.133172 A 27.563814,28.474585 0 0 0 63.584786,32.349998 Z M 58.808033,20.64294 c 0.219341,0 0.950477,2.240706 1.5232,4.607294 a 8.0668633,8.3334109 0 0 1 0.30464,3.537294 6.9579742,7.1878816 0 0 1 -2.327449,-3.587647 c -0.548352,-2.215529 0.207155,-4.556941 0.499609,-4.556941 z m 0.60928,23.011292 C 57.333577,47.971996 51.496677,55.638231 46.256872,57.690113 41.017066,59.741995 31.780386,64.059759 22.251251,59.49023 12.722117,54.920701 9.8950582,50.602937 6.4099783,43.301761 2.9248984,36.000586 2.6202585,28.649057 4.3262417,23.349411 6.0322248,18.049764 11.527928,11.075882 15.987856,7.9288236 20.447783,4.7817651 26.382168,3.7117652 30.257186,3.32153 35.36295,2.8054124 40.359044,2.6543536 44.733672,4.9705886 49.108301,7.2868237 55.627593,15.041176 56.68774,16.375529 a 9.4438354,9.7558814 0 0 1 1.559756,2.756823 c 0,0 -2.132479,1.510588 -1.32823,5.35 0.80425,3.839411 2.205593,5.425528 2.814873,5.941646 a 5.251991,5.4255289 0 0 0 1.340415,0.793059 c 0,0 0.377753,8.094234 -1.681612,12.424587 z M 52.715236,15.078941 c 0.377754,0.276941 0.19497,-0.465765 0.268083,-0.742706 a 12.941101,13.368705 0 0 0 -3.387595,-2.945647 0.95047634,0.98188225 0 0 0 -0.30464,0.856 c 0.04874,0.201412 3.022028,2.555412 3.424152,2.832353 z m -3.241368,0.35247 c 0,0 -0.377753,0.71753 -0.255897,0.868588 0.121856,0.151059 4.264958,3.852 4.264958,3.852 a 1.0723323,1.1077646 0 0 0 0.219341,-0.742706 31.000151,32.024467 0 0 0 -4.252773,-3.977882 z m 3.241368,7.364117 c 0.109671,0 0.231527,-0.516117 0.231527,-0.868588 a 29.391653,30.36282 0 0 0 -4.082174,-3.499529 c -0.219341,-0.113294 -0.523981,0.780471 -0.60928,1.145529 -0.0853,0.365059 4.325886,3.260353 4.459927,3.222588 z m -8.797999,-5.589176 a 3.0098417,3.1092938 0 0 0 -4.252772,-2.857529 c -3.192626,1.258824 -2.924542,5.664706 -1.02359,6.646588 a 3.9725037,4.1037643 0 0 0 5.251991,-3.789059 z m -3.948132,-1.875647 a 2.0837366,2.152588 0 0 1 2.924543,2.014118 2.7539443,2.8449409 0 0 1 -3.655679,2.580588 C 37.921925,19.245646 37.726956,16.22447 39.944734,15.330705 Z M 9.6269751,26.332822 c 0.3777539,0 0.1096703,-0.944118 0.7189499,-3.298117 a 10.698952,11.052469 0 0 1 2.510233,-4.368118 c 0.121856,-0.125882 -1.21856,-0.843411 -1.32823,-0.793058 -0.41431,0.163647 -1.5597563,2.517647 -2.2055928,4.015646 a 13.684422,14.136587 0 0 0 -0.9992187,4.204471 c 0.085299,0.239176 0.9139196,0.276941 1.3038586,0.239176 z M 31.999726,24.92294 c -0.755506,-6.294117 -5.922198,-7.980941 -9.066082,-7.162705 -9.212309,2.391764 -6.994531,10.435646 -2.071551,13.494586 4.92298,3.058941 11.917511,-0.08812 11.137633,-6.331881 z m -10.028743,4.317764 c -3.326668,-2.102235 -4.874238,-7.55294 1.413528,-9.139058 a 5.0692071,5.2367053 0 0 1 6.092797,4.84647 c 0.572723,4.242235 -4.167473,6.394823 -7.49414,4.292588 z m -8.249648,7.049411 c -0.07311,-2.517647 -1.949695,-2.907882 -2.619903,-2.605764 -3.5825647,1.623882 -2.6320883,5.715058 -0.804249,6.180823 1.827839,0.465764 3.509451,-1.019647 3.424152,-3.575059 z m -3.156069,2.593176 a 2.010623,2.0770586 0 0 1 0.755507,-3.77647 c 0.767692,-0.251765 1.645055,0.667177 1.5232,1.812706 -0.121856,1.145529 -1.084519,2.429529 -2.266522,1.963764 z m 18.997342,3.033765 a 2.8270578,2.9204703 0 0 0 0.877362,5.614352 3.0463985,3.1470585 0 0 0 2.936729,-4.091176 c -0.377754,-1.888235 -2.083737,-2.454706 -3.814091,-1.523176 z m 0.268083,4.405882 c -1.21856,-0.629412 -1.32823,-2.291059 0.268083,-3.272941 a 1.4744569,1.5231763 0 0 1 2.364005,1.334353 1.9131383,1.9763527 0 0 1 -2.583346,1.938588 z M 19.168296,46.864232 C 18.21782,46.083761 18.412789,45.37882 18.254376,45.215173 A 3.7287918,3.8519996 0 0 0 17.3039,45.328467 c -0.268083,0.125882 0.30464,1.422471 0.91392,2.014118 a 4.9473512,5.110823 0 0 0 1.827839,1.183294 c 0.268083,0 0.341196,-0.314706 0.41431,-0.591647 0.07311,-0.276942 -0.292454,-0.276942 -1.242931,-1.07 z m -1.791282,1.346941 A 7.774409,8.0312933 0 0 1 15.67103,45.529879 c 0,0 -0.840806,0 -1.035775,0.239176 -0.19497,0.239177 0.572723,1.447647 1.303858,2.316235 a 17.608183,18.189998 0 0 0 2.583346,2.517647 c 0.268083,0.113294 0.60928,-0.276941 0.71895,-0.553882 0.109671,-0.276941 -0.645836,-0.579059 -1.864395,-1.837882 z m -1.74254,1.258823 a 24.127476,24.924703 0 0 1 -2.290892,-3.625411 4.6183402,4.7709407 0 0 0 -1.108889,0.440588 c -0.219341,0.188823 0.389939,1.258823 1.571941,2.630941 1.182003,1.372117 2.814873,2.983411 3.192626,2.945647 a 0.57272292,0.591647 0 0 0 0.572723,-0.465765 c 0.121856,-0.201412 -0.560537,-0.352471 -1.888767,-1.888235 z m 24.980467,1.888235 c -3.204811,0.188824 -2.181221,3.499529 -1.108889,4.091176 1.072333,0.591647 2.741759,0.780471 3.192626,-1.258823 0.450867,-2.039294 -0.280269,-2.907882 -2.034994,-2.794588 z m 1.133261,2.870118 a 1.0601467,1.0951764 0 0 1 -1.864396,0 1.2185594,1.2588234 0 0 1 0.877363,-1.850471 1.2185594,1.2588234 0 0 1 0.987033,1.850471 z m 5.897827,-17.82494 c -4.216215,1.019647 -5.251991,3.977882 -3.960318,7.036823 1.291673,3.058941 2.437119,3.272941 4.801124,2.756823 2.364005,-0.516117 5.373847,-2.870117 4.533041,-6.218587 -0.840806,-3.348471 -2.339634,-4.317765 -5.398218,-3.575059 z m 2.558975,7.867646 c -1.949695,1.258824 -2.863615,1.57353 -4.728011,-0.201411 -1.864395,-1.774941 -2.278706,-5.148588 1.82784,-6.482941 1.011404,-0.327294 3.204811,-1.07 4.082174,1.409882 0.877362,2.479883 0.731135,4.015647 -1.206374,5.27447 z M 57.29702,31.972351 c -0.268083,0 -0.60928,0.591647 -0.645837,0.868588 a 20.557097,21.236351 0 0 0 2.936728,2.983411 c 0.146228,0.07553 0.341197,-0.390235 0.341197,-0.704941 A 12.928915,13.356116 0 0 0 57.29702,31.972351 Z m -2.437119,2.668705 a 45.427895,46.928936 0 0 0 4.045617,4.368118 c 0.146227,0.08812 0.219341,-0.390236 0.255898,-0.742706 0.03656,-0.352471 -3.655679,-4.154117 -3.655679,-4.405882 0,-0.251765 -0.52398,0.629412 -0.609279,0.767882 z m 0.463053,2.882706 c -0.158413,0 -0.767693,0.780471 -0.767693,0.893765 0,0.113294 3.509451,3.70094 3.655678,3.77647 0.146227,0.07553 0.389939,-0.579059 0.389939,-0.856 A 26.55241,27.429762 0 0 0 55.35951,37.511174 Z"
     fill="currentColor" />
</svg>
